<mxfile host="app.diagrams.net" agent="Mozilla/5.0 (Macintosh; Intel Mac OS X 10_15_7) AppleWebKit/537.36 (KHTML, like Gecko) Chrome/135.0.0.0 Safari/537.36" version="26.2.14">
  <diagram id="6c526acd-7617-469c-a10f-92b7c20c3156" name="Page-1">
    <mxGraphModel dx="1426" dy="766" grid="1" gridSize="10" guides="1" tooltips="1" connect="1" arrows="1" fold="1" page="1" pageScale="1" pageWidth="1700" pageHeight="1100" math="0" shadow="0">
      <root>
        <mxCell id="0" />
        <mxCell id="1" parent="0" />
        <mxCell id="nbpBO7r62uUx5-6EKn1k-6" style="edgeStyle=orthogonalEdgeStyle;rounded=0;orthogonalLoop=1;jettySize=auto;html=1;exitX=1;exitY=0.5;exitDx=0;exitDy=0;entryX=0;entryY=0.5;entryDx=0;entryDy=0;endArrow=none;startFill=0;" edge="1" parent="1" source="c1" target="e1">
          <mxGeometry relative="1" as="geometry" />
        </mxCell>
        <mxCell id="c1" value="C1&#xa;Account&#xa;exists" style="ellipse;whiteSpace=wrap;html=1;aspect=fixed;" parent="1" vertex="1">
          <mxGeometry x="40" y="23" width="70" height="70" as="geometry" />
        </mxCell>
        <mxCell id="c2" value="C2&#xa;amount&gt;0" style="ellipse;whiteSpace=wrap;html=1;aspect=fixed;" parent="1" vertex="1">
          <mxGeometry x="40" y="190" width="70" height="70" as="geometry" />
        </mxCell>
        <mxCell id="c3" value="C3&#xa;total%&gt;100-EPS" style="ellipse;whiteSpace=wrap;html=1;aspect=fixed;" parent="1" vertex="1">
          <mxGeometry x="380" y="350" width="70" height="70" as="geometry" />
        </mxCell>
        <mxCell id="e1" value="E1&#xa;error:&#xa;no account" style="ellipse;whiteSpace=wrap;html=1;" parent="1" vertex="1">
          <mxGeometry x="400" y="36" width="120" height="44" as="geometry" />
        </mxCell>
        <mxCell id="e2" value="E2&#xa;error:&#xa;amountâ‰¤0" style="ellipse;whiteSpace=wrap;html=1;" parent="1" vertex="1">
          <mxGeometry x="330" y="220" width="120" height="44" as="geometry" />
        </mxCell>
        <mxCell id="e3" value="1" style="ellipse;whiteSpace=wrap;html=1;" parent="1" vertex="1">
          <mxGeometry x="480" y="120" width="50" height="40" as="geometry" />
        </mxCell>
        <mxCell id="e4" value="E4&#xa;no savings msg" style="ellipse;whiteSpace=wrap;html=1;" parent="1" vertex="1">
          <mxGeometry x="770" y="420" width="120" height="40" as="geometry" />
        </mxCell>
        <mxCell id="e5" value="E5&#xa;savings msg" style="ellipse;whiteSpace=wrap;html=1;" parent="1" vertex="1">
          <mxGeometry x="820" y="224" width="120" height="40" as="geometry" />
        </mxCell>
        <mxCell id="e6" value="E6&#xa;update&#xa;spending" style="ellipse;whiteSpace=wrap;html=1;" parent="1" vertex="1">
          <mxGeometry x="1020" y="105" width="130" height="50" as="geometry" />
        </mxCell>
        <mxCell id="e7" value="E7&#xa;update&#xa;savings" style="ellipse;whiteSpace=wrap;html=1;" parent="1" vertex="1">
          <mxGeometry x="1240" y="310" width="130" height="50" as="geometry" />
        </mxCell>
        <mxCell id="nbpBO7r62uUx5-6EKn1k-7" value="" style="curved=1;endArrow=none;html=1;rounded=0;startFill=0;" edge="1" parent="1">
          <mxGeometry width="50" height="50" relative="1" as="geometry">
            <mxPoint x="160" y="59" as="sourcePoint" />
            <mxPoint x="260" y="59" as="targetPoint" />
            <Array as="points">
              <mxPoint x="180" y="79" />
              <mxPoint x="220" y="72" />
              <mxPoint x="200" y="19" />
            </Array>
          </mxGeometry>
        </mxCell>
        <mxCell id="nbpBO7r62uUx5-6EKn1k-8" value="" style="endArrow=none;html=1;rounded=0;" edge="1" parent="1" target="e2">
          <mxGeometry width="50" height="50" relative="1" as="geometry">
            <mxPoint x="100" y="80" as="sourcePoint" />
            <mxPoint x="390" y="180" as="targetPoint" />
          </mxGeometry>
        </mxCell>
        <mxCell id="nbpBO7r62uUx5-6EKn1k-9" value="" style="endArrow=none;html=1;rounded=0;entryX=0.017;entryY=0.682;entryDx=0;entryDy=0;entryPerimeter=0;exitX=1;exitY=0.5;exitDx=0;exitDy=0;" edge="1" parent="1" source="c2" target="e2">
          <mxGeometry width="50" height="50" relative="1" as="geometry">
            <mxPoint x="100" y="264.5" as="sourcePoint" />
            <mxPoint x="370" y="264.5" as="targetPoint" />
          </mxGeometry>
        </mxCell>
        <mxCell id="nbpBO7r62uUx5-6EKn1k-11" value="&lt;font style=&quot;font-size: 24px;&quot;&gt;^&lt;/font&gt;" style="text;html=1;align=center;verticalAlign=middle;whiteSpace=wrap;rounded=0;" vertex="1" parent="1">
          <mxGeometry x="280" y="210" width="60" height="30" as="geometry" />
        </mxCell>
        <mxCell id="nbpBO7r62uUx5-6EKn1k-13" value="" style="endArrow=none;html=1;rounded=0;" edge="1" parent="1" source="c1">
          <mxGeometry width="50" height="50" relative="1" as="geometry">
            <mxPoint x="440" y="190" as="sourcePoint" />
            <mxPoint x="490" y="140" as="targetPoint" />
          </mxGeometry>
        </mxCell>
        <mxCell id="nbpBO7r62uUx5-6EKn1k-14" value="" style="endArrow=none;html=1;rounded=0;entryX=0;entryY=0.5;entryDx=0;entryDy=0;" edge="1" parent="1" target="e3">
          <mxGeometry width="50" height="50" relative="1" as="geometry">
            <mxPoint x="110" y="220" as="sourcePoint" />
            <mxPoint x="160" y="170" as="targetPoint" />
          </mxGeometry>
        </mxCell>
        <mxCell id="nbpBO7r62uUx5-6EKn1k-15" value="" style="curved=1;endArrow=none;html=1;rounded=0;startFill=0;" edge="1" parent="1">
          <mxGeometry width="50" height="50" relative="1" as="geometry">
            <mxPoint x="440" y="150" as="sourcePoint" />
            <mxPoint x="436" y="130" as="targetPoint" />
            <Array as="points">
              <mxPoint x="410" y="140" />
            </Array>
          </mxGeometry>
        </mxCell>
        <mxCell id="nbpBO7r62uUx5-6EKn1k-16" value="&lt;font style=&quot;font-size: 24px;&quot;&gt;^&lt;/font&gt;" style="text;html=1;align=center;verticalAlign=middle;whiteSpace=wrap;rounded=0;" vertex="1" parent="1">
          <mxGeometry x="365" y="130" width="60" height="30" as="geometry" />
        </mxCell>
        <mxCell id="nbpBO7r62uUx5-6EKn1k-21" value="" style="curved=1;endArrow=none;html=1;rounded=0;startFill=0;" edge="1" parent="1">
          <mxGeometry width="50" height="50" relative="1" as="geometry">
            <mxPoint x="180" y="230" as="sourcePoint" />
            <mxPoint x="270" y="243" as="targetPoint" />
            <Array as="points">
              <mxPoint x="200" y="250" />
              <mxPoint x="240" y="243" />
              <mxPoint x="220" y="190" />
            </Array>
          </mxGeometry>
        </mxCell>
        <mxCell id="nbpBO7r62uUx5-6EKn1k-23" value="E3&#xa;distributing..." style="ellipse;whiteSpace=wrap;html=1;" vertex="1" parent="1">
          <mxGeometry x="750" y="110" width="120" height="40" as="geometry" />
        </mxCell>
        <mxCell id="nbpBO7r62uUx5-6EKn1k-24" value="" style="endArrow=none;html=1;rounded=0;entryX=0;entryY=0.5;entryDx=0;entryDy=0;exitX=1;exitY=0.5;exitDx=0;exitDy=0;" edge="1" parent="1" source="e3" target="nbpBO7r62uUx5-6EKn1k-23">
          <mxGeometry width="50" height="50" relative="1" as="geometry">
            <mxPoint x="525" y="150" as="sourcePoint" />
            <mxPoint x="575" y="100" as="targetPoint" />
          </mxGeometry>
        </mxCell>
        <mxCell id="nbpBO7r62uUx5-6EKn1k-37" value="" style="endArrow=none;html=1;rounded=0;exitX=1;exitY=0.5;exitDx=0;exitDy=0;" edge="1" parent="1" source="nbpBO7r62uUx5-6EKn1k-23">
          <mxGeometry width="50" height="50" relative="1" as="geometry">
            <mxPoint x="970" y="180" as="sourcePoint" />
            <mxPoint x="1020" y="130" as="targetPoint" />
          </mxGeometry>
        </mxCell>
        <mxCell id="nbpBO7r62uUx5-6EKn1k-40" value="C4&lt;br&gt;Has Save Flag" style="ellipse;whiteSpace=wrap;html=1;aspect=fixed;" vertex="1" parent="1">
          <mxGeometry x="380" y="493" width="70" height="70" as="geometry" />
        </mxCell>
        <mxCell id="nbpBO7r62uUx5-6EKn1k-42" value="2" style="ellipse;whiteSpace=wrap;html=1;" vertex="1" parent="1">
          <mxGeometry x="610" y="403" width="50" height="40" as="geometry" />
        </mxCell>
        <mxCell id="nbpBO7r62uUx5-6EKn1k-43" value="" style="endArrow=none;html=1;rounded=0;entryX=0;entryY=0.5;entryDx=0;entryDy=0;exitX=1;exitY=0.5;exitDx=0;exitDy=0;" edge="1" parent="1" source="c3" target="nbpBO7r62uUx5-6EKn1k-42">
          <mxGeometry width="50" height="50" relative="1" as="geometry">
            <mxPoint x="550" y="250" as="sourcePoint" />
            <mxPoint x="600" y="200" as="targetPoint" />
          </mxGeometry>
        </mxCell>
        <mxCell id="nbpBO7r62uUx5-6EKn1k-44" value="" style="endArrow=none;html=1;rounded=0;" edge="1" parent="1" target="nbpBO7r62uUx5-6EKn1k-42">
          <mxGeometry width="50" height="50" relative="1" as="geometry">
            <mxPoint x="450" y="533" as="sourcePoint" />
            <mxPoint x="500" y="483" as="targetPoint" />
          </mxGeometry>
        </mxCell>
        <mxCell id="nbpBO7r62uUx5-6EKn1k-45" value="3" style="ellipse;whiteSpace=wrap;html=1;" vertex="1" parent="1">
          <mxGeometry x="630" y="210" width="50" height="35" as="geometry" />
        </mxCell>
        <mxCell id="nbpBO7r62uUx5-6EKn1k-46" value="" style="endArrow=none;html=1;rounded=0;entryX=0;entryY=0.5;entryDx=0;entryDy=0;" edge="1" parent="1" target="e4">
          <mxGeometry width="50" height="50" relative="1" as="geometry">
            <mxPoint x="660" y="430" as="sourcePoint" />
            <mxPoint x="710" y="380" as="targetPoint" />
          </mxGeometry>
        </mxCell>
        <mxCell id="nbpBO7r62uUx5-6EKn1k-48" value="" style="endArrow=none;html=1;rounded=0;exitX=0.075;exitY=0.175;exitDx=0;exitDy=0;exitPerimeter=0;" edge="1" parent="1" source="e5">
          <mxGeometry width="50" height="50" relative="1" as="geometry">
            <mxPoint x="470" y="210" as="sourcePoint" />
            <mxPoint x="530" y="150" as="targetPoint" />
          </mxGeometry>
        </mxCell>
        <mxCell id="nbpBO7r62uUx5-6EKn1k-49" value="" style="endArrow=none;html=1;rounded=0;exitX=0;exitY=0;exitDx=0;exitDy=0;" edge="1" parent="1" source="e4">
          <mxGeometry width="50" height="50" relative="1" as="geometry">
            <mxPoint x="600" y="235" as="sourcePoint" />
            <mxPoint x="512" y="160" as="targetPoint" />
          </mxGeometry>
        </mxCell>
        <mxCell id="nbpBO7r62uUx5-6EKn1k-50" value="" style="endArrow=none;html=1;rounded=0;entryX=0;entryY=0.5;entryDx=0;entryDy=0;" edge="1" parent="1" target="e5">
          <mxGeometry width="50" height="50" relative="1" as="geometry">
            <mxPoint x="680" y="235" as="sourcePoint" />
            <mxPoint x="790" y="245" as="targetPoint" />
          </mxGeometry>
        </mxCell>
        <mxCell id="nbpBO7r62uUx5-6EKn1k-52" value="" style="curved=1;endArrow=none;html=1;rounded=0;startFill=0;" edge="1" parent="1">
          <mxGeometry width="50" height="50" relative="1" as="geometry">
            <mxPoint x="480" y="510" as="sourcePoint" />
            <mxPoint x="550" y="480" as="targetPoint" />
            <Array as="points">
              <mxPoint x="500" y="530" />
              <mxPoint x="520" y="520" />
              <mxPoint x="520" y="490" />
              <mxPoint x="510" y="470" />
            </Array>
          </mxGeometry>
        </mxCell>
        <mxCell id="nbpBO7r62uUx5-6EKn1k-53" value="&lt;font style=&quot;font-size: 20px;&quot;&gt;I&lt;/font&gt;" style="text;html=1;align=center;verticalAlign=middle;whiteSpace=wrap;rounded=0;" vertex="1" parent="1">
          <mxGeometry x="210" y="443" width="60" height="30" as="geometry" />
        </mxCell>
        <mxCell id="nbpBO7r62uUx5-6EKn1k-54" value="" style="endArrow=none;dashed=1;html=1;dashPattern=1 3;strokeWidth=2;rounded=0;entryX=0;entryY=1;entryDx=0;entryDy=0;" edge="1" parent="1" target="c3">
          <mxGeometry width="50" height="50" relative="1" as="geometry">
            <mxPoint x="260" y="453" as="sourcePoint" />
            <mxPoint x="310" y="403" as="targetPoint" />
          </mxGeometry>
        </mxCell>
        <mxCell id="nbpBO7r62uUx5-6EKn1k-56" value="" style="endArrow=none;dashed=1;html=1;dashPattern=1 3;strokeWidth=2;rounded=0;entryX=-0.029;entryY=0.414;entryDx=0;entryDy=0;entryPerimeter=0;" edge="1" parent="1" target="nbpBO7r62uUx5-6EKn1k-40">
          <mxGeometry width="50" height="50" relative="1" as="geometry">
            <mxPoint x="257" y="467" as="sourcePoint" />
            <mxPoint x="378.56644480332716" y="504.64638290683683" as="targetPoint" />
          </mxGeometry>
        </mxCell>
        <mxCell id="nbpBO7r62uUx5-6EKn1k-57" value="" style="curved=1;endArrow=none;html=1;rounded=0;startFill=0;" edge="1" parent="1">
          <mxGeometry width="50" height="50" relative="1" as="geometry">
            <mxPoint x="760" y="440" as="sourcePoint" />
            <mxPoint x="760" y="400" as="targetPoint" />
            <Array as="points">
              <mxPoint x="750" y="430" />
              <mxPoint x="750" y="410" />
            </Array>
          </mxGeometry>
        </mxCell>
        <mxCell id="nbpBO7r62uUx5-6EKn1k-58" value="&lt;font style=&quot;font-size: 24px;&quot;&gt;^&lt;/font&gt;" style="text;html=1;align=center;verticalAlign=middle;whiteSpace=wrap;rounded=0;" vertex="1" parent="1">
          <mxGeometry x="690" y="400" width="60" height="30" as="geometry" />
        </mxCell>
        <mxCell id="nbpBO7r62uUx5-6EKn1k-59" value="" style="endArrow=none;html=1;rounded=0;entryX=0;entryY=1;entryDx=0;entryDy=0;" edge="1" parent="1" target="nbpBO7r62uUx5-6EKn1k-45">
          <mxGeometry width="50" height="50" relative="1" as="geometry">
            <mxPoint x="450" y="510" as="sourcePoint" />
            <mxPoint x="500" y="460" as="targetPoint" />
          </mxGeometry>
        </mxCell>
        <mxCell id="nbpBO7r62uUx5-6EKn1k-60" value="" style="endArrow=none;html=1;rounded=0;entryX=0;entryY=1;entryDx=0;entryDy=0;" edge="1" parent="1" target="nbpBO7r62uUx5-6EKn1k-45">
          <mxGeometry width="50" height="50" relative="1" as="geometry">
            <mxPoint x="450" y="363" as="sourcePoint" />
            <mxPoint x="637" y="93" as="targetPoint" />
          </mxGeometry>
        </mxCell>
        <mxCell id="nbpBO7r62uUx5-6EKn1k-61" value="" style="curved=1;endArrow=none;html=1;rounded=0;startFill=0;" edge="1" parent="1">
          <mxGeometry width="50" height="50" relative="1" as="geometry">
            <mxPoint x="490" y="330" as="sourcePoint" />
            <mxPoint x="550" y="300" as="targetPoint" />
            <Array as="points">
              <mxPoint x="510" y="350" />
              <mxPoint x="530" y="340" />
              <mxPoint x="530" y="310" />
              <mxPoint x="520" y="290" />
            </Array>
          </mxGeometry>
        </mxCell>
        <mxCell id="nbpBO7r62uUx5-6EKn1k-64" value="&lt;font style=&quot;font-size: 24px;&quot;&gt;^&lt;/font&gt;" style="text;html=1;align=center;verticalAlign=middle;whiteSpace=wrap;rounded=0;" vertex="1" parent="1">
          <mxGeometry x="554" y="280" width="60" height="30" as="geometry" />
        </mxCell>
        <mxCell id="nbpBO7r62uUx5-6EKn1k-68" value="" style="curved=1;endArrow=none;html=1;rounded=0;startFill=0;" edge="1" parent="1">
          <mxGeometry width="50" height="50" relative="1" as="geometry">
            <mxPoint x="618" y="269" as="sourcePoint" />
            <mxPoint x="608" y="259" as="targetPoint" />
            <Array as="points">
              <mxPoint x="608" y="279" />
              <mxPoint x="598" y="269" />
            </Array>
          </mxGeometry>
        </mxCell>
        <mxCell id="nbpBO7r62uUx5-6EKn1k-72" value="" style="curved=1;endArrow=classic;html=1;rounded=0;entryX=0;entryY=0;entryDx=0;entryDy=0;dashed=1;" edge="1" parent="1" target="c2">
          <mxGeometry width="50" height="50" relative="1" as="geometry">
            <mxPoint x="40" y="70" as="sourcePoint" />
            <mxPoint x="70" y="93" as="targetPoint" />
            <Array as="points">
              <mxPoint x="20" y="150" />
            </Array>
          </mxGeometry>
        </mxCell>
        <mxCell id="nbpBO7r62uUx5-6EKn1k-73" value="R" style="text;html=1;align=center;verticalAlign=middle;resizable=0;points=[];autosize=1;strokeColor=none;fillColor=none;" vertex="1" parent="1">
          <mxGeometry y="128" width="30" height="30" as="geometry" />
        </mxCell>
        <mxCell id="nbpBO7r62uUx5-6EKn1k-74" value="" style="curved=1;endArrow=none;html=1;rounded=0;startFill=0;" edge="1" parent="1">
          <mxGeometry width="50" height="50" relative="1" as="geometry">
            <mxPoint x="802" y="244" as="sourcePoint" />
            <mxPoint x="798" y="224" as="targetPoint" />
            <Array as="points">
              <mxPoint x="772" y="234" />
            </Array>
          </mxGeometry>
        </mxCell>
        <mxCell id="nbpBO7r62uUx5-6EKn1k-75" value="&lt;font style=&quot;font-size: 24px;&quot;&gt;^&lt;/font&gt;" style="text;html=1;align=center;verticalAlign=middle;whiteSpace=wrap;rounded=0;" vertex="1" parent="1">
          <mxGeometry x="739" y="218" width="60" height="30" as="geometry" />
        </mxCell>
      </root>
    </mxGraphModel>
  </diagram>
</mxfile>
